<svg width="126" height="30" viewBox="0 0 126 30" fill="none" xmlns="http://www.w3.org/2000/svg">
<path d="M15.0422 7.52104L7.52105 15.0421L0 7.52104L7.52105 -1.52588e-05L15.0422 7.52104ZM14.9579 7.52104L22.4789 15.0421L30 7.52104L22.4789 -1.52588e-05L14.9579 7.52104ZM15.0422 22.4789L7.52105 14.9579L0 22.4789L7.52105 30L15.0422 22.4789ZM22.4789 30L30 22.4789L22.4789 14.9579L14.9579 22.4789L22.4789 30Z" fill="#1D1D1B"/>
<path d="M54.9129 26.5927H38V21.8303L48.2786 8.10703H38.3115V3.4073H54.6015V7.95038L44.1671 21.8929H54.9129V26.5927Z" fill="#1D1D1B"/>
<path d="M63.7517 3.4073V26.5927H58.7058V3.4073H63.7517Z" fill="#1D1D1B"/>
<path d="M90.4887 14.9687C90.4887 22.0496 85.8477 26.9687 79.1511 26.9687C72.4856 26.9687 67.9069 22.0809 67.9069 15C67.9069 7.91904 72.5167 2.99998 79.1822 2.99998C85.8789 2.99998 90.4887 7.88771 90.4887 14.9687ZM85.1625 14.9687C85.1625 10.5509 82.9199 7.88771 79.2134 7.88771C75.4757 7.88771 73.2331 10.5509 73.2331 14.9687C73.2331 19.4177 75.4757 22.0809 79.2134 22.0809C82.9199 22.0809 85.1625 19.3551 85.1625 14.9687Z" fill="#1D1D1B"/>
<path d="M99.6109 26.5927H94.6273V3.4073H99.6109L109.329 18.1645V3.4073H114.312V26.5927H109.329L99.6109 11.8668V26.5927Z" fill="#1D1D1B"/>
<path d="M122.134 27C120.546 27 119.269 25.7154 119.269 24.1801C119.269 22.6136 120.546 21.329 122.134 21.329C123.661 21.329 125 22.6136 125 24.1801C125 25.7154 123.661 27 122.134 27Z" fill="#1D1D1B"/>
<path d="M54.9129 26.5927H38V21.8303L48.2786 8.10703H38.3115V3.4073H54.6015V7.95038L44.1671 21.8929H54.9129V26.5927Z" stroke="#1D1D1B"/>
<path d="M63.7517 3.4073V26.5927H58.7058V3.4073H63.7517Z" stroke="#1D1D1B"/>
<path d="M90.4887 14.9687C90.4887 22.0496 85.8477 26.9687 79.1511 26.9687C72.4856 26.9687 67.9069 22.0809 67.9069 15C67.9069 7.91904 72.5167 2.99998 79.1822 2.99998C85.8789 2.99998 90.4887 7.88771 90.4887 14.9687ZM85.1625 14.9687C85.1625 10.5509 82.9199 7.88771 79.2134 7.88771C75.4757 7.88771 73.2331 10.5509 73.2331 14.9687C73.2331 19.4177 75.4757 22.0809 79.2134 22.0809C82.9199 22.0809 85.1625 19.3551 85.1625 14.9687Z" stroke="#1D1D1B"/>
<path d="M99.6109 26.5927H94.6273V3.4073H99.6109L109.329 18.1645V3.4073H114.312V26.5927H109.329L99.6109 11.8668V26.5927Z" stroke="#1D1D1B"/>
<path d="M122.134 27C120.546 27 119.269 25.7154 119.269 24.1801C119.269 22.6136 120.546 21.329 122.134 21.329C123.661 21.329 125 22.6136 125 24.1801C125 25.7154 123.661 27 122.134 27Z" stroke="#1D1D1B"/>
</svg>
